<svg width="28" height="28" viewBox="0 0 28 28" fill="none" xmlns="http://www.w3.org/2000/svg">
<path d="M22.5 6.75C22.5 6.94891 22.579 7.13968 22.7197 7.28033C22.8603 7.42098 23.0511 7.5 23.25 7.5C23.4489 7.5 23.6397 7.42098 23.7803 7.28033C23.921 7.13968 24 6.94891 24 6.75V5.5H25.25C25.4489 5.5 25.6397 5.42098 25.7803 5.28033C25.921 5.13968 26 4.94891 26 4.75C26 4.55109 25.921 4.36032 25.7803 4.21967C25.6397 4.07902 25.4489 4 25.25 4H24V2.75C24 2.55109 23.921 2.36032 23.7803 2.21967C23.6397 2.07902 23.4489 2 23.25 2C23.0511 2 22.8603 2.07902 22.7197 2.21967C22.579 2.36032 22.5 2.55109 22.5 2.75V4H21.25C21.0511 4 20.8603 4.07902 20.7197 4.21967C20.579 4.36032 20.5 4.55109 20.5 4.75C20.5 4.94891 20.579 5.13968 20.7197 5.28033C20.8603 5.42098 21.0511 5.5 21.25 5.5H22.5V6.75ZM8.606 3.62C8.779 2.785 9.508 2 10.502 2C11.496 2 12.224 2.785 12.397 3.62C12.574 4.472 13.019 5.758 14.13 6.87C15.241 7.982 16.528 8.427 17.38 8.604C18.215 8.778 19 9.506 19 10.5C19 11.494 18.215 12.223 17.38 12.396C16.528 12.573 15.243 13.018 14.13 14.131C13.019 15.243 12.574 16.528 12.398 17.379C12.224 18.215 11.496 19 10.501 19C9.507 19 8.779 18.216 8.605 17.38C8.428 16.528 7.983 15.242 6.871 14.13C5.759 13.016 4.473 12.572 3.622 12.396C2.788 12.222 2.004 11.496 2.002 10.503C2 9.508 2.786 8.778 3.622 8.604C4.474 8.427 5.759 7.983 6.872 6.87C7.985 5.757 8.429 4.472 8.606 3.62ZM11.5 22.25V19.82C11.0207 19.9966 10.5033 20.0436 10 19.956V22.25C10 23.2446 10.3951 24.1984 11.0983 24.9017C11.8016 25.6049 12.7554 26 13.75 26H22.25C23.2446 26 24.1984 25.6049 24.9017 24.9017C25.6049 24.1984 26 23.2446 26 22.25V13.75C26 12.7554 25.6049 11.8016 24.9017 11.0983C24.1984 10.3951 23.2446 10 22.25 10H19.957C20.0442 10.5033 19.997 11.0208 19.82 11.5H22.25C22.8467 11.5 23.419 11.7371 23.841 12.159C24.2629 12.581 24.5 13.1533 24.5 13.75V22.25C24.5 22.8467 24.2629 23.419 23.841 23.841C23.419 24.2629 22.8467 24.5 22.25 24.5H13.75C13.1533 24.5 12.581 24.2629 12.159 23.841C11.7371 23.419 11.5 22.8467 11.5 22.25ZM2 23.25C2 23.0511 2.07902 22.8603 2.21967 22.7197C2.36032 22.579 2.55109 22.5 2.75 22.5H4V21.25C4 21.0511 4.07902 20.8603 4.21967 20.7197C4.36032 20.579 4.55109 20.5 4.75 20.5C4.94891 20.5 5.13968 20.579 5.28033 20.7197C5.42098 20.8603 5.5 21.0511 5.5 21.25V22.5H6.75C6.94891 22.5 7.13968 22.579 7.28033 22.7197C7.42098 22.8603 7.5 23.0511 7.5 23.25C7.5 23.4489 7.42098 23.6397 7.28033 23.7803C7.13968 23.921 6.94891 24 6.75 24H5.5V25.25C5.5 25.4489 5.42098 25.6397 5.28033 25.7803C5.13968 25.921 4.94891 26 4.75 26C4.55109 26 4.36032 25.921 4.21967 25.7803C4.07902 25.6397 4 25.4489 4 25.25V24H2.75C2.55109 24 2.36032 23.921 2.21967 23.7803C2.07902 23.6397 2 23.4489 2 23.25ZM14 16.25C14 16.0511 14.079 15.8603 14.2197 15.7197C14.3603 15.579 14.5511 15.5 14.75 15.5H21.75C21.9489 15.5 22.1397 15.579 22.2803 15.7197C22.421 15.8603 22.5 16.0511 22.5 16.25C22.5 16.4489 22.421 16.6397 22.2803 16.7803C22.1397 16.921 21.9489 17 21.75 17H14.75C14.5511 17 14.3603 16.921 14.2197 16.7803C14.079 16.6397 14 16.4489 14 16.25ZM14.75 19C14.5511 19 14.3603 19.079 14.2197 19.2197C14.079 19.3603 14 19.5511 14 19.75C14 19.9489 14.079 20.1397 14.2197 20.2803C14.3603 20.421 14.5511 20.5 14.75 20.5H19.25C19.4489 20.5 19.6397 20.421 19.7803 20.2803C19.921 20.1397 20 19.9489 20 19.75C20 19.5511 19.921 19.3603 19.7803 19.2197C19.6397 19.079 19.4489 19 19.25 19H14.75Z" fill="#E95435"/>
</svg>
