<svg width="24" height="24" viewBox="0 0 24 24" fill="none" xmlns="http://www.w3.org/2000/svg">
<path d="M17.1553 1.61719C17.7895 1.68576 18.4193 1.75719 19.0444 1.83147C19.8461 1.9254 20.5927 2.28733 21.163 2.8586C21.7334 3.42987 22.0941 4.177 22.1867 4.9789L22.3924 6.85604M17.1553 22.384C17.7895 22.3155 18.4193 22.244 19.0444 22.1698C19.8461 22.0758 20.5927 21.7139 21.163 21.1426C21.7334 20.5714 22.0941 19.8242 22.1867 19.0223L22.3924 17.1452M6.84554 1.61719C6.21126 1.68576 5.58154 1.75719 4.9564 1.83147C4.15465 1.9254 3.40811 2.28733 2.83777 2.8586C2.26744 3.42987 1.90673 4.177 1.81411 4.9789L1.6084 6.85604M6.84554 22.384C6.21126 22.3155 5.58154 22.244 4.9564 22.1698C4.15465 22.0758 3.40811 21.7139 2.83777 21.1426C2.26744 20.5714 1.90673 19.8242 1.81411 19.0223L1.6084 17.1452M14.3113 6.38119H9.68783L8.54097 8.4589L7.9444 8.51033L7.86383 8.51719C6.90383 8.60119 6.11526 9.34004 5.97468 10.2915C5.84783 11.1538 5.73468 12.0435 5.73468 12.9486C5.73468 13.8538 5.84783 14.7452 5.97468 15.6092C6.11526 16.5606 6.90554 17.2995 7.86383 17.3835L7.9444 17.3903C9.25411 17.5035 10.6101 17.62 12.0004 17.62C13.389 17.62 14.7467 17.5035 16.0564 17.3903L16.1353 17.3835C17.0953 17.2995 17.8838 16.5606 18.0244 15.6092C18.1513 14.7452 18.2661 13.8572 18.2661 12.9503C18.2661 12.0435 18.1513 11.1538 18.0261 10.2932C17.9557 9.82804 17.7309 9.40006 17.388 9.07797C17.0451 8.75589 16.6039 8.55839 16.1353 8.51719L16.0564 8.51033L15.4598 8.4589L14.3113 6.38119Z" stroke="#E95435" stroke-width="2" stroke-linecap="round" stroke-linejoin="round"/>
<path d="M12.0004 14.4696C13.0976 14.4696 13.7147 13.8524 13.7147 12.7553C13.7147 11.6582 13.0976 11.041 12.0004 11.041C10.9033 11.041 10.2861 11.6582 10.2861 12.7553C10.2861 13.8524 10.9033 14.4696 12.0004 14.4696Z" stroke="#E95435" stroke-width="2" stroke-linecap="round" stroke-linejoin="round"/>
</svg>
